<svg width="13" height="13" viewBox="0 0 13 13" fill="none" xmlns="http://www.w3.org/2000/svg">
<path d="M8.74664 4.35729C8.05532 3.64623 7.15128 3.28766 6.24133 3.28766V6.93411L3.73602 9.51094C5.11867 10.9331 7.364 10.9331 8.75255 9.51094C10.1352 8.08882 10.1352 5.7794 8.74664 4.35729Z" fill="#8B92A5"/>
<path fill-rule="evenodd" clip-rule="evenodd" d="M2.13642 4.3945e-05L2.12749 0L2.01702 0.00325816L2.00861 0.00377927C0.844619 0.0759404 -0.00264596 1.11397 6.19076e-06 2.30092L6.09092e-06 2.30021L7.9018e-06 2.30163L6.19076e-06 2.30092C8.95787e-05 2.59821 0.0524092 2.84465 0.153598 3.06827C0.247495 3.27578 0.37536 3.44196 0.474776 3.57116L0.478425 3.5759L1.31599 2.89417C1.2083 2.7542 1.15658 2.68124 1.12196 2.60472C1.09355 2.54195 1.0681 2.45611 1.06811 2.30021L1.0681 2.29878C1.06643 1.63524 1.5272 1.13854 2.06539 1.10087L2.13931 1.09869C2.37885 1.10179 2.60985 1.19122 2.79199 1.35153L3.48643 0.516832C3.11011 0.185609 2.63172 0.00248135 2.13642 4.3945e-05ZM10.983 0.247122L10.8725 0.243864L10.8636 0.243908C10.3683 0.246345 9.88989 0.429473 9.51357 0.760696L10.208 1.59539C10.3902 1.43508 10.6211 1.34566 10.8607 1.34256L10.9346 1.34474C11.4728 1.3824 11.9336 1.8791 11.9319 2.54265L11.9319 2.54407C11.9319 2.69998 11.9064 2.78582 11.878 2.84859C11.8434 2.92511 11.7917 2.99807 11.684 3.13804L12.5216 3.81977L12.5252 3.81503C12.6246 3.68582 12.7525 3.51965 12.8464 3.31214C12.9476 3.08851 12.9999 2.84207 13 2.54478C13.0026 1.35783 12.1554 0.319804 10.9914 0.247643L10.983 0.247122ZM8.74664 4.35729C8.05532 3.64623 7.15128 3.28766 6.24133 3.28766V6.93411L3.73602 9.51094C5.11867 10.9331 7.364 10.9331 8.75255 9.51094C10.1352 8.08882 10.1352 5.7794 8.74664 4.35729Z" fill="#8B92A5"/>
<path fill-rule="evenodd" clip-rule="evenodd" d="M8.65688 1.37547C7.58345 0.918143 6.40228 0.798487 5.26273 1.03163C4.12318 1.26477 3.07644 1.84024 2.25487 2.68526C1.4333 3.53028 0.873802 4.6069 0.647132 5.77898C0.420462 6.95106 0.536797 8.16595 0.981427 9.27003C1.20909 9.83533 1.51758 10.3586 1.89412 10.8238L0.690005 12.0623C0.481446 12.2768 0.481446 12.6246 0.690005 12.8391C0.898564 13.0536 1.2367 13.0536 1.44526 12.8391L2.64931 11.6007C2.80743 11.7361 2.97287 11.8634 3.14507 11.9817C4.11114 12.6456 5.24692 13 6.40879 13C7.78764 13 9.11651 12.5014 10.1676 11.6013L11.371 12.8391C11.5795 13.0536 11.9177 13.0536 12.1262 12.8391C12.3348 12.6246 12.3348 12.2768 12.1262 12.0623L10.9229 10.8245C11.7984 9.74338 12.2833 8.37629 12.2833 6.95776C12.2833 5.76272 11.9388 4.59452 11.2933 3.60088C10.6478 2.60724 9.73031 1.83279 8.65688 1.37547ZM8.24814 2.39043C7.36988 2.01626 6.40346 1.91836 5.4711 2.10911C4.53875 2.29986 3.68232 2.7707 3.01013 3.46208C2.33793 4.15346 1.88016 5.03433 1.69471 5.99331C1.50925 6.95228 1.60443 7.94628 1.96822 8.84962C2.33201 9.75295 2.94806 10.525 3.73848 11.0683C4.52889 11.6115 5.45817 11.9014 6.40879 11.9014C7.68354 11.9014 8.90608 11.3806 9.80746 10.4535C10.7088 9.52634 11.2152 8.2689 11.2152 6.95776C11.2152 5.98 10.9333 5.0242 10.4052 4.21122C9.87706 3.39824 9.1264 2.7646 8.24814 2.39043Z" fill="#8B92A5"/>
<path fill-rule="evenodd" clip-rule="evenodd" d="M8.74664 4.35729C8.05532 3.64623 7.15128 3.28766 6.24133 3.28766V6.93411L3.73602 9.51094C5.11867 10.9331 7.364 10.9331 8.75255 9.51094C10.1352 8.08882 10.1352 5.7794 8.74664 4.35729Z" fill="#8B92A5"/>
</svg>
