<svg width="9" height="9" viewBox="0 0 9 9" fill="none" xmlns="http://www.w3.org/2000/svg">
<path d="M1.28571 0.642857C1.28571 0.997897 0.997897 1.28571 0.642857 1.28571C0.287817 1.28571 0 0.997897 0 0.642857C0 0.287817 0.287817 0 0.642857 0C0.997897 0 1.28571 0.287817 1.28571 0.642857Z" fill="#8B92A5"/>
<path d="M2.57143 0.642857C2.57143 0.287817 2.85925 0 3.21429 0H8.35714C8.71218 0 9 0.287817 9 0.642857C9 0.997897 8.71218 1.28571 8.35714 1.28571H3.21429C2.85925 1.28571 2.57143 0.997897 2.57143 0.642857Z" fill="#8B92A5"/>
<path d="M2.57143 6.42857C2.57143 6.07353 2.85925 5.78571 3.21429 5.78571H8.35714C8.71218 5.78571 9 6.07353 9 6.42857C9 6.78361 8.71218 7.07143 8.35714 7.07143H3.21429C2.85925 7.07143 2.57143 6.78361 2.57143 6.42857Z" fill="#8B92A5"/>
<path d="M2.57143 2.57143C2.57143 2.21639 2.85925 1.92857 3.21429 1.92857H7.07143C7.42647 1.92857 7.71429 2.21639 7.71429 2.57143C7.71429 2.92647 7.42647 3.21429 7.07143 3.21429H3.21429C2.85925 3.21429 2.57143 2.92647 2.57143 2.57143Z" fill="#8B92A5"/>
<path d="M2.57143 8.35714C2.57143 8.0021 2.85925 7.71429 3.21429 7.71429H7.07143C7.42647 7.71429 7.71429 8.0021 7.71429 8.35714C7.71429 8.71218 7.42647 9 7.07143 9H3.21429C2.85925 9 2.57143 8.71218 2.57143 8.35714Z" fill="#8B92A5"/>
<path d="M0.642857 7.07143C0.997897 7.07143 1.28571 6.78361 1.28571 6.42857C1.28571 6.07353 0.997897 5.78571 0.642857 5.78571C0.287817 5.78571 0 6.07353 0 6.42857C0 6.78361 0.287817 7.07143 0.642857 7.07143Z" fill="#8B92A5"/>
</svg>
